<svg width="175" height="34" viewBox="0 0 175 34" fill="none" xmlns="http://www.w3.org/2000/svg">
<g clip-path="url(#clip0_12_112)">
<path d="M8.38318 16.6709C7.92603 16.1744 7.67226 15.5241 7.67226 14.8492C7.67226 14.1743 7.92603 13.5241 8.38318 13.0276L13.0843 8.32461C13.5613 7.80917 13.82 7.12898 13.8062 6.42685C13.7923 5.72471 13.507 5.05525 13.01 4.55903C12.5131 4.06281 11.8432 3.77842 11.1411 3.76559C10.4389 3.75276 9.75909 4.01247 9.24434 4.4902L0.851703 12.8828C0.833143 12.8995 0.812728 12.9107 0.794168 12.9292C0.285179 13.4408 -0.000549316 14.1331 -0.000549316 14.8548C-0.000549316 15.5765 0.285179 16.2688 0.794168 16.7804C0.812728 16.7989 0.833143 16.8119 0.851703 16.8286L9.24434 25.2213C9.7538 25.7305 10.4447 26.0164 11.165 26.0163C11.8853 26.0161 12.576 25.7298 13.0852 25.2203C13.5945 24.7109 13.8804 24.02 13.8803 23.2997C13.8801 22.5794 13.5938 21.8886 13.0843 21.3794L8.38318 16.6709Z" fill="#DE55BC"/>
<path d="M166.497 16.9076C166.954 16.4108 167.208 15.7602 167.208 15.085C167.208 14.4098 166.954 13.7593 166.497 13.2625L161.796 8.55947C161.319 8.04404 161.06 7.36384 161.074 6.66171C161.088 5.95957 161.373 5.29011 161.87 4.79389C162.367 4.29767 163.037 4.01329 163.739 4.00045C164.441 3.98762 165.121 4.24733 165.636 4.72506L174.029 13.1158C174.047 13.1344 174.068 13.1455 174.086 13.1641C174.595 13.6757 174.881 14.368 174.881 15.0897C174.881 15.8113 174.595 16.5036 174.086 17.0152C174.068 17.0338 174.047 17.0468 174.029 17.0635L165.636 25.4561C165.384 25.7082 165.084 25.9082 164.755 26.0446C164.425 26.1811 164.072 26.2512 163.715 26.2511C163.359 26.251 163.005 26.1807 162.676 26.0441C162.347 25.9076 162.047 25.7074 161.795 25.4552C161.543 25.2029 161.343 24.9035 161.206 24.5739C161.07 24.2444 161 23.8912 161 23.5345C161 23.1779 161.07 22.8247 161.207 22.4952C161.344 22.1658 161.544 21.8664 161.796 21.6143L166.497 16.9076Z" fill="#DE55BC"/>
<path d="M28.4981 23.7721C27.1701 23.7921 25.8579 23.4818 24.6794 22.8692C23.5686 22.2946 22.6371 21.4257 21.9867 20.3576C21.3398 19.2092 21 17.9134 21 16.5953C21 15.2773 21.3398 13.9815 21.9867 12.8331C22.6347 11.7663 23.5672 10.9011 24.6794 10.3345C25.8608 9.7311 27.1717 9.42565 28.4981 9.44482C29.67 9.42527 30.8299 9.68244 31.8837 10.1954C32.9016 10.7113 33.739 11.524 34.2852 12.526C34.8888 13.5758 35.1897 14.9274 35.188 16.5809C35.1862 18.2343 34.8853 19.5903 34.2852 20.6489C33.7405 21.6599 32.9036 22.4831 31.8837 23.011C30.8321 23.5313 29.6712 23.7923 28.4981 23.7721ZM28.9416 30.0211C27.5856 30.023 26.2355 29.8402 24.9288 29.4778C23.7608 29.1843 22.668 28.6477 21.7216 27.9031L23.2753 25.2917C24.006 25.8738 24.8404 26.312 25.7345 26.5829C26.7067 26.9033 27.7237 27.0672 28.7474 27.0685C30.3746 27.0685 31.5688 26.694 32.3299 25.9452C33.091 25.1963 33.4698 24.0713 33.4663 22.57V19.9403L33.7445 16.5809L33.6343 13.2215V9.61017H36.9386V22.1895C36.9386 24.8752 36.2536 26.8515 34.8836 28.1183C33.5136 29.3851 31.5329 30.0193 28.9416 30.0211ZM29.0256 20.8352C29.8351 20.8487 30.6354 20.6631 31.3562 20.2946C32.0192 19.954 32.5731 19.4338 32.9545 18.7934C33.3281 18.1177 33.5241 17.3582 33.5241 16.5861C33.5241 15.8141 33.3281 15.0546 32.9545 14.3789C32.5762 13.7432 32.0208 13.2316 31.3562 12.9066C30.6311 12.5516 29.8329 12.3718 29.0256 12.3817C28.2134 12.3727 27.4103 12.5524 26.6793 12.9066C26.0085 13.2274 25.4478 13.7397 25.0679 14.3789C24.6942 15.0546 24.4983 15.8141 24.4983 16.5861C24.4983 17.3582 24.6942 18.1177 25.0679 18.7934C25.4512 19.4369 26.0103 19.9577 26.6793 20.2946C27.4064 20.6607 28.2117 20.8445 29.0256 20.83V20.8352Z" fill="#AAAAAA"/>
<path d="M45.9616 24.6329C44.96 24.655 43.9655 24.4607 43.0458 24.0634C42.2672 23.7308 41.5985 23.1849 41.1168 22.4887C40.6624 21.8118 40.4253 21.0126 40.437 20.1975C40.425 19.4072 40.6311 18.6289 41.0328 17.9482C41.5021 17.2292 42.1877 16.6777 42.9907 16.3735C43.8988 15.9851 45.1017 15.7909 46.5994 15.7909H50.8957V18.0952H46.8514C45.6651 18.0952 44.8698 18.2868 44.463 18.6647C44.2661 18.841 44.1095 19.0577 44.004 19.3C43.8985 19.5424 43.8465 19.8046 43.8515 20.0689C43.843 20.3612 43.9071 20.6512 44.0381 20.9127C44.1691 21.1742 44.3629 21.3992 44.6021 21.5675C45.1008 21.9375 45.7963 22.1212 46.6834 22.1212C47.4854 22.1344 48.2763 21.9333 48.9746 21.5386C49.6478 21.1536 50.1644 20.5442 50.4338 19.8169L51.0165 21.9008C50.6829 22.7702 50.0462 23.4898 49.2239 23.9269C48.3631 24.3993 47.2757 24.6346 45.9616 24.6329ZM50.628 24.4387V21.4415L50.4338 20.8011V15.5521C50.4338 14.5337 50.1276 13.7464 49.5152 13.19C48.9028 12.6336 47.9773 12.351 46.7385 12.3423C45.9045 12.3435 45.0757 12.4745 44.2819 12.7307C43.5382 12.958 42.8451 13.326 42.2401 13.8146L40.8806 11.2872C41.7316 10.6507 42.6977 10.1846 43.7255 9.91459C44.8427 9.60601 45.9968 9.45148 47.1558 9.4553C49.3027 9.4553 50.9648 9.96883 52.1424 10.9959C53.3199 12.023 53.9078 13.6108 53.9061 15.7594V24.4492L50.628 24.4387Z" fill="#AAAAAA"/>
<path d="M58.3467 24.4387V3.83618H61.8163V13.0535L61.5408 16.9903L61.651 20.9271V24.4255L58.3467 24.4387ZM66.5641 24.6329C65.3909 24.6535 64.2327 24.3667 63.2047 23.8009C62.1961 23.216 61.3882 22.3395 60.8873 21.2866C60.3239 20.1686 60.0413 18.7478 60.0396 17.0244C60.0378 15.301 60.3291 13.8758 60.9135 12.749C61.4352 11.7034 62.2579 10.8378 63.2756 10.2636C64.2834 9.71317 65.4159 9.43119 66.5641 9.44478C67.9156 9.41685 69.251 9.74255 70.4379 10.3896C71.5498 11.0103 72.4716 11.9222 73.1044 13.0272C73.7525 14.2604 74.0911 15.6326 74.0911 17.0257C74.0911 18.4188 73.7525 19.791 73.1044 21.0242C72.4699 22.1313 71.5487 23.0469 70.4379 23.6749C69.2536 24.3299 67.9172 24.6604 66.5641 24.6329ZM66.1757 21.6619C66.9567 21.6763 67.7277 21.4853 68.4118 21.1081C69.0785 20.7307 69.6245 20.1719 69.9865 19.4967C70.3697 18.7266 70.5692 17.8781 70.5692 17.0178C70.5692 16.1576 70.3697 15.3091 69.9865 14.539C69.6209 13.8704 69.0754 13.3176 68.4118 12.9433C67.7277 12.5661 66.9567 12.3752 66.1757 12.3895C65.3908 12.3772 64.616 12.568 63.9265 12.9433C63.2616 13.316 62.7157 13.8692 62.3518 14.539C61.9685 15.3091 61.7691 16.1576 61.7691 17.0178C61.7691 17.8781 61.9685 18.7266 62.3518 19.4967C62.7121 20.1731 63.2585 20.7323 63.9265 21.1081C64.616 21.4834 65.3908 21.6742 66.1757 21.6619Z" fill="#AAAAAA"/>
<path d="M79.1434 7.16674C78.8502 7.17767 78.5578 7.12939 78.2836 7.02478C78.0094 6.92016 77.7591 6.76135 77.5477 6.55785C77.35 6.3656 77.1929 6.13568 77.0856 5.88166C76.9783 5.62764 76.923 5.35469 76.923 5.07894C76.923 4.80318 76.9783 4.53022 77.0856 4.2762C77.1929 4.02218 77.35 3.79226 77.5477 3.60002C77.7608 3.3995 78.0116 3.24333 78.2855 3.14061C78.5594 3.03788 78.8511 2.99063 79.1434 3.00163C79.7287 2.97952 80.3001 3.18344 80.7391 3.57114C80.9412 3.74975 81.102 3.97022 81.2104 4.21722C81.3187 4.46423 81.3719 4.73185 81.3664 5.00151C81.3734 5.28624 81.3229 5.56947 81.2178 5.8342C81.1127 6.09893 80.9553 6.3397 80.7549 6.5421C80.5441 6.75206 80.2921 6.91599 80.0147 7.02351C79.7373 7.13103 79.4406 7.1798 79.1434 7.16674ZM77.4034 24.4387V9.61016H80.873V24.4387H77.4034Z" fill="#AAAAAA"/>
<path d="M92.2215 24.6329C90.7767 24.6593 89.3487 24.3208 88.0695 23.6487C86.8923 23.024 85.9084 22.0892 85.2245 20.9455C84.5518 19.7476 84.1984 18.3969 84.1984 17.0231C84.1984 15.6493 84.5518 14.2986 85.2245 13.1008C85.9082 11.9628 86.8927 11.0356 88.0695 10.4211C89.3515 9.75816 90.7783 9.42446 92.2215 9.45007C93.5456 9.4214 94.8563 9.71978 96.0375 10.3188C97.125 10.8885 98.0043 11.788 98.5492 12.8882L95.8853 14.4419C95.4919 13.7885 94.931 13.2521 94.2607 12.8882C93.6224 12.5556 92.9123 12.3843 92.1926 12.3895C91.3893 12.3771 90.5958 12.5675 89.8856 12.9433C89.2064 13.3085 88.6476 13.8628 88.2768 14.539C87.8936 15.3115 87.6942 16.1621 87.6942 17.0244C87.6942 17.8867 87.8936 18.7374 88.2768 19.5098C88.6467 20.1874 89.2057 20.7428 89.8856 21.1082C90.5958 21.484 91.3893 21.6744 92.1926 21.662C92.9123 21.6671 93.6224 21.4959 94.2607 21.1633C94.9311 20.7983 95.4919 20.2611 95.8853 19.607L98.5492 21.1633C97.9935 22.2552 97.1171 23.1509 96.0375 23.7301C94.8628 24.3502 93.5495 24.6609 92.2215 24.6329Z" fill="#AAAAAA"/>
<path d="M106.011 24.6329C105.009 24.655 104.014 24.4607 103.095 24.0634C102.316 23.7308 101.647 23.1849 101.166 22.4887C100.711 21.8118 100.474 21.0126 100.486 20.1975C100.475 19.4073 100.681 18.6294 101.082 17.9482C101.551 17.2292 102.237 16.6777 103.04 16.3735C103.948 15.9851 105.152 15.7909 106.651 15.7909H110.955V18.0952H106.911C105.725 18.0952 104.929 18.2868 104.523 18.6647C104.328 18.8393 104.172 19.0534 104.067 19.2929C103.961 19.5323 103.908 19.7915 103.911 20.0531C103.902 20.3455 103.967 20.6354 104.098 20.897C104.229 21.1585 104.422 21.3835 104.662 21.5517C105.16 21.9218 105.856 22.1055 106.743 22.1055C107.545 22.1186 108.336 21.9175 109.034 21.5229C109.708 21.1387 110.225 20.529 110.493 19.8012L111.076 21.885C110.742 22.7545 110.106 23.4741 109.283 23.9112C108.423 24.3941 107.332 24.6346 106.011 24.6329ZM110.677 24.4387V21.4415L110.483 20.8011V15.5521C110.483 14.5338 110.177 13.7464 109.564 13.19C108.952 12.6336 108.03 12.3475 106.798 12.3318C105.964 12.333 105.135 12.464 104.341 12.7202C103.598 12.9469 102.906 13.315 102.302 13.8041L100.94 11.2767C101.792 10.6397 102.759 10.1735 103.788 9.9041C104.904 9.59537 106.057 9.44084 107.215 9.44481C109.362 9.44481 111.024 9.95834 112.202 10.9854C113.379 12.0125 113.967 13.6003 113.966 15.7489V24.4387H110.677Z" fill="#AAAAAA"/>
<path d="M118.406 24.4387V9.61013H121.711V13.6939L121.322 12.4997C121.743 11.5242 122.484 10.7209 123.422 10.2217C124.375 9.69675 125.564 9.4343 126.988 9.4343V12.7386C126.852 12.703 126.712 12.6802 126.571 12.6703C126.443 12.6703 126.309 12.6546 126.183 12.6546C124.869 12.6546 123.819 13.0386 123.033 13.8067C122.248 14.5748 121.858 15.7183 121.865 17.237V24.4282L118.406 24.4387Z" fill="#AAAAAA"/>
<path d="M132.206 24.4387V6.38987L133.781 8.02757H128.096V5.0015H135.815V24.4387H132.206Z" fill="#AAAAAA"/>
<path d="M139.426 24.4387V22.0241L147.145 14.6938C147.681 14.2084 148.164 13.6683 148.588 13.0824C148.869 12.691 149.08 12.2542 149.213 11.7911C149.311 11.4246 149.362 11.0472 149.365 10.6678C149.384 10.2771 149.311 9.88754 149.152 9.53021C148.992 9.17289 148.752 8.8578 148.449 8.61021C147.84 8.11942 146.94 7.87534 145.756 7.87534C144.875 7.8626 144 8.03237 143.187 8.374C142.411 8.71437 141.73 9.23866 141.203 9.90147L138.675 7.95932C139.471 6.9116 140.53 6.09233 141.744 5.58414C143.108 5.00392 144.578 4.71518 146.061 4.73641C147.319 4.70969 148.57 4.94196 149.735 5.41879C150.71 5.81562 151.549 6.48546 152.152 7.34781C152.73 8.22882 153.025 9.26546 152.997 10.3188C152.998 10.9517 152.914 11.5819 152.748 12.1927C152.545 12.8935 152.225 13.5553 151.803 14.1506C151.21 14.9873 150.531 15.7596 149.777 16.4549L143.142 22.7537L142.392 21.3916H153.748V24.4466L139.426 24.4387Z" fill="#AAAAAA"/>
</g>
<defs>
<clipPath id="clip0_12_112">
<rect width="175" height="34" fill="white"/>
</clipPath>
</defs>
</svg>
